<svg width="24" height="25" viewBox="0 0 24 25" fill="none" xmlns="http://www.w3.org/2000/svg">
<path d="M11.9999 7.4882C8.95972 7.4882 6.50615 9.94177 6.50615 12.9819C6.50615 16.0221 8.95972 18.4757 11.9999 18.4757C15.0401 18.4757 17.4937 16.0221 17.4937 12.9819C17.4937 9.94177 15.0401 7.4882 11.9999 7.4882ZM11.9999 16.5525C10.0338 16.5525 8.42937 14.948 8.42937 12.9819C8.42937 11.0159 10.0338 9.41141 11.9999 9.41141C13.966 9.41141 15.5704 11.0159 15.5704 12.9819C15.5704 14.948 13.966 16.5525 11.9999 16.5525ZM17.7187 5.98284C17.0088 5.98284 16.4356 6.55606 16.4356 7.26588C16.4356 7.9757 17.0088 8.54891 17.7187 8.54891C18.4285 8.54891 19.0017 7.97838 19.0017 7.26588C19.0019 7.09733 18.9689 6.93039 18.9045 6.77463C18.84 6.61887 18.7456 6.47735 18.6264 6.35816C18.5072 6.23898 18.3657 6.14448 18.2099 6.08008C18.0541 6.01567 17.8872 5.98263 17.7187 5.98284ZM22.7088 12.9819C22.7088 11.5034 22.7222 10.0382 22.6392 8.56231C22.5562 6.84802 22.1651 5.32659 20.9115 4.07302C19.6553 2.81677 18.1365 2.42838 16.4222 2.34534C14.9437 2.26231 13.4785 2.2757 12.0026 2.2757C10.524 2.2757 9.05883 2.26231 7.58294 2.34534C5.86865 2.42838 4.34722 2.81945 3.09365 4.07302C1.8374 5.32927 1.44901 6.84802 1.36597 8.56231C1.28294 10.0409 1.29633 11.5061 1.29633 12.9819C1.29633 14.4578 1.28294 15.9257 1.36597 17.4016C1.44901 19.1159 1.84008 20.6373 3.09365 21.8909C4.3499 23.1471 5.86865 23.5355 7.58294 23.6186C9.06151 23.7016 10.5267 23.6882 12.0026 23.6882C13.4812 23.6882 14.9463 23.7016 16.4222 23.6186C18.1365 23.5355 19.6579 23.1444 20.9115 21.8909C22.1678 20.6346 22.5562 19.1159 22.6392 17.4016C22.7249 15.9257 22.7088 14.4605 22.7088 12.9819ZM20.3517 19.298C20.1562 19.7855 19.9204 20.1498 19.5428 20.5248C19.1651 20.9025 18.8035 21.1382 18.316 21.3337C16.907 21.8936 13.5615 21.7677 11.9999 21.7677C10.4383 21.7677 7.09008 21.8936 5.68115 21.3364C5.19365 21.1409 4.82937 20.9052 4.45437 20.5275C4.07669 20.1498 3.84097 19.7882 3.64544 19.3007C3.08829 17.8891 3.21419 14.5436 3.21419 12.9819C3.21419 11.4203 3.08829 8.07213 3.64544 6.6632C3.84097 6.1757 4.07669 5.81141 4.45437 5.43641C4.83204 5.06141 5.19365 4.82302 5.68115 4.62749C7.09008 4.07034 10.4383 4.19623 11.9999 4.19623C13.5615 4.19623 16.9097 4.07034 18.3187 4.62749C18.8062 4.82302 19.1704 5.05873 19.5454 5.43641C19.9231 5.81409 20.1588 6.1757 20.3544 6.6632C20.9115 8.07213 20.7856 11.4203 20.7856 12.9819C20.7856 14.5436 20.9115 17.8891 20.3517 19.298Z" fill="#142B2E" fill-opacity="0.62"/>
</svg>
