<svg width="32" height="32" viewBox="0 0 32 32" fill="none" xmlns="http://www.w3.org/2000/svg">
<g clip-path="url(#clip0_44_36)">
<path d="M24.5543 9.02415C24.4252 10.0309 23.9293 11.5711 23.4536 12.443C23.2109 12.8876 22.5987 13.7525 22.2921 14.0838L22.1274 14.2618L22.6933 14.3103C24.2484 14.4438 25.4501 14.841 26.8926 15.6983C27.2802 15.9287 27.6327 16.0955 27.6759 16.0691C27.986 15.88 28.8317 15.124 29.4102 14.5187C29.9282 13.9768 30.2175 13.5988 30.5716 13.001C31.0339 12.2205 32.0404 10.2688 31.9987 10.2334C31.9349 10.1791 31.1841 9.8738 30.3852 9.57722C28.6799 8.94414 27.3919 8.70165 25.7325 8.70124L24.5958 8.70097L24.5543 9.02415Z" fill="#FF2D88"/>
<path d="M27.043 17.2499C25.8544 18.0495 23.4811 18.7705 22.0378 18.7705C21.7129 18.7705 21.6542 18.8297 21.8323 18.9774C22.0468 19.1553 22.7387 20.1848 23.0704 20.8199C23.4717 21.588 23.8667 22.7325 23.9945 23.497C24.0748 23.9776 24.104 24.0445 24.2511 24.0855C24.5122 24.1583 26.6136 24.1501 27.1416 24.0742C28.3207 23.9046 31.5066 23.054 31.4889 22.9135C31.4669 22.7406 30.7335 21.1297 30.3304 20.3694C30.1122 19.9577 29.7894 19.4372 29.613 19.2127C29.4366 18.9882 29.1107 18.5722 28.8889 18.2882C28.4867 17.7732 27.6503 17.0015 27.4945 17.0015C27.4492 17.0015 27.2461 17.1133 27.043 17.2499Z" fill="#FF2D88"/>
<path d="M18.0506 22.5546C18.0495 23.0455 18.003 23.7083 17.9473 24.0274C17.7683 25.0532 17.1371 26.5296 16.4864 27.4452C16.3002 27.7072 16.1541 27.9431 16.1617 27.9696C16.1897 28.0671 17.9588 29.6037 18.3211 29.8452C18.5271 29.9826 19.3645 30.427 20.182 30.8329C21.0221 31.2499 21.7848 31.6757 21.9359 31.8121C22.1948 32.0457 22.2035 32.0483 22.204 31.8925C22.2043 31.804 22.2661 31.5326 22.3415 31.2893C22.561 30.5808 23.0671 28.5306 23.222 27.7228C23.3993 26.7985 23.455 25.9627 23.3828 25.3129L23.3273 24.8133L22.4239 24.5865C21.7751 24.4236 21.353 24.2707 20.926 24.0438C19.9498 23.5251 19.2377 23.0145 18.8163 22.5314C18.6001 22.2835 18.3399 21.9865 18.2379 21.8713L18.0526 21.6621L18.0506 22.5546Z" fill="#FF2D88"/>
<path d="M12.3013 22.7859C10.9872 23.5955 9.86774 24.0705 8.37662 24.4512C8.13312 24.5133 7.91216 24.585 7.88567 24.6105C7.82089 24.6726 8.00139 26.4998 8.13544 27.1391C8.31124 27.9774 8.77406 29.2923 9.23041 30.2499C9.46615 30.7446 9.67948 31.2422 9.70441 31.3555C9.72934 31.4688 9.76537 31.5615 9.78451 31.5615C9.80372 31.5615 9.93681 31.462 10.0803 31.3404C10.2238 31.2187 10.6858 30.9359 11.1068 30.7117C12.3169 30.0677 13.6204 29.2634 14.4714 28.6359C14.9028 28.3178 15.2558 28.0348 15.2559 28.0069C15.2559 27.979 15.0239 27.6344 14.7404 27.2411C14.1179 26.3778 13.686 25.5518 13.4144 24.705C13.2214 24.1032 13.035 23.184 12.9935 22.6291L12.9742 22.3713L12.3013 22.7859Z" fill="#FF2D88"/>
<path d="M3.98486 17.21C3.48035 17.5913 2.24928 18.8419 1.96035 19.2666C1.71228 19.6314 0.407449 22.1678 0.407449 22.2853C0.407449 22.3084 0.31577 22.4762 0.203725 22.6581L0 22.9888H0.158225C0.245273 22.9888 0.911619 23.158 1.63906 23.3648C3.84312 23.9913 4.1706 24.0443 5.80523 24.0378C6.58254 24.0347 7.23546 24.0153 7.25617 23.9946C7.27688 23.9739 7.32571 23.6702 7.3646 23.3198C7.49845 22.1146 8.04485 20.7675 8.86662 19.6167L9.3069 19.0001L8.36518 18.819C7.84718 18.7194 7.18581 18.5591 6.89538 18.4628C6.31444 18.2702 5.23493 17.6946 4.66271 17.2724C4.46083 17.1234 4.28673 17.0024 4.27577 17.0034C4.2648 17.0044 4.13389 17.0974 3.98486 17.21Z" fill="#A328D4"/>
<path d="M4.52826 8.73948C3.49261 8.9157 0.0771021 9.83964 0.109319 9.93489C0.113883 9.9485 0.477197 10.6909 0.916591 11.5847C2.12348 14.0396 3.05403 15.333 4.33673 16.3384C4.41165 16.3077 4.8552 16.0114 5.00505 15.9104C5.66738 15.4639 6.87399 14.9479 7.86578 14.6872C8.4431 14.5354 9.68282 14.4062 10.0506 14.4596L10.3178 14.4984L9.8862 14.1063C9.43448 13.6961 9.33892 13.5648 8.75172 12.5489C8.22241 11.6331 7.82477 10.2315 7.74685 9.00714L7.72955 8.73499L7.25276 8.6924C6.43637 8.61953 5.09755 8.64266 4.52826 8.73948Z" fill="#A328D4"/>
<path d="M9.61954 0.145291C9.61246 0.229521 9.48454 0.621823 9.33531 1.01712C9.18607 1.41242 8.90919 2.25131 8.71991 2.88141C8.31757 4.22086 8.17228 5.20903 8.17228 6.60549C8.17228 7.17534 8.14692 7.40353 8.24911 7.51396C8.33814 7.61017 8.524 7.61697 8.90783 7.68245C9.51942 7.78682 10.5677 8.11925 11.2033 8.41052C11.8981 8.72887 12.4875 9.10266 13.1974 9.67513C13.5073 9.92516 13.7696 10.1298 13.7803 10.1298C13.7908 10.1298 13.7861 9.8491 13.7696 9.50606C13.7341 8.76329 13.8283 8.183 14.1488 7.17013C14.4502 6.21775 14.8911 5.32986 15.4024 4.64609L15.8044 4.10846L14.859 3.18996C14.1025 2.45481 13.7706 2.18648 13.1969 1.84568C12.4029 1.37411 10.4071 0.365866 10.1302 0.296468C10.0328 0.272111 9.90023 0.193665 9.83553 0.122158C9.68241 -0.0468461 9.63521 -0.0417436 9.61954 0.145291Z" fill="#A328D4"/>
<path d="M22.2035 0.331984C22.0724 0.399341 21.3917 0.735309 20.691 1.07842C19.9005 1.46555 19.2153 1.85473 18.886 2.10374C18.594 2.32452 18.1629 2.65158 17.928 2.83052C17.6931 3.00952 17.2828 3.37515 17.0162 3.64315L16.5315 4.13037L16.9745 4.76577C18.0242 6.2717 18.7297 8.35037 18.7297 9.93761V10.416L18.9658 10.2089C19.9934 9.30773 22.0037 8.39508 23.3718 8.20872L23.9611 8.12837L24.0108 7.00317C24.0808 5.41892 24.0303 4.92531 23.6415 3.39386C23.1744 1.5538 22.716 0.240678 22.5335 0.219927C22.4831 0.214143 22.3346 0.264627 22.2035 0.331984Z" fill="#A328D4"/>
<path d="M16.1617 17.686C16.0609 18.0893 15.8375 18.4041 15.4616 18.8385C15.0856 19.273 14.9368 19.3693 14.508 19.9009C14.3223 20.1311 14.0037 20.706 13.8597 20.9895C13.6032 21.4942 13.6549 21.4628 13.6322 22.302C13.6081 23.1924 13.6551 23.4769 14.0434 24.7918C14.2321 25.4308 14.6902 26.3023 15.1973 26.9871C15.664 27.6172 15.6396 27.6149 16.0421 27.0671C16.6749 26.2061 17.2712 24.6437 17.5079 23.2269C17.6954 22.1038 17.6681 20.6129 17.4445 19.7717C17.2998 19.2274 16.4682 18.0131 16.1617 17.686Z" fill="#FF2D96"/>
<path d="M17.4356 17.5841C17.4356 18.2642 17.9172 20.0741 18.3036 20.8456C18.4759 21.1899 18.8226 21.6325 19.4441 22.3019C20.126 23.0364 21.5544 23.8182 22.8067 24.1424L23.5802 24.3426L23.5348 24.0229C23.3756 22.9014 22.8244 21.4123 22.1698 20.3359C21.4648 19.1767 20.4415 18.1625 19.6956 17.8837C19.2553 17.7192 17.9782 17.3705 17.657 17.3271C17.4375 17.2975 17.4356 17.2997 17.4356 17.5841Z" fill="#FF2D96"/>
<path d="M20.9434 14.9941C20.6437 15.0427 20.2759 15.128 20.126 15.1836C19.7959 15.3062 18.583 15.8951 17.9983 16.2166L17.5735 16.4502L17.8281 16.6988C18.0968 16.9612 19.0285 17.4376 19.7589 17.686C20.3503 17.8871 21.5794 18.0892 22.2138 18.0897C22.9059 18.0902 24.183 17.8667 24.9447 17.6119C25.5326 17.4151 26.7247 16.8469 27.0077 16.6285C27.1395 16.5268 27.1389 16.5229 26.9714 16.3814C26.5811 16.0521 24.9642 15.37 24.1447 15.189C23.453 15.0363 22.3372 14.892 21.9021 14.8991C21.6745 14.9028 21.2431 14.9456 20.9434 14.9941Z" fill="#FF2D96"/>
<path d="M6.51871 17.7543C7.30167 18.0706 7.45063 18.1109 8.41068 18.2667C9.60626 18.4607 10.7941 18.2971 11.7279 17.8097C12.1573 17.5855 12.8716 16.928 13.4716 16.2047L13.7648 15.8513L13.5057 15.7214C12.6986 15.3166 11.6517 15.099 10.2764 15.0503C8.9645 15.0038 8.12651 15.1093 7.11654 15.4483C6.5072 15.6527 5.66165 16.0484 5.16525 16.3616C4.85111 16.5596 5.18228 16.3616 4.73382 16.6351C5.36256 17.1147 5.74231 17.3666 6.51871 17.7543Z" fill="#FF2DE3"/>
<path d="M8.30851 8.67525C8.30851 10.2038 8.94591 12.1233 9.79296 13.1458C10.2727 13.7249 10.7862 14.1163 11.5439 14.4802C12.4974 14.9381 13.9042 15.2804 14.1475 15.1137C14.2815 15.0218 14.1394 14.6386 13.7294 13.9863L13.3618 13.4016L13.8833 13.7637C14.8471 14.4332 14.9039 14.4304 14.8423 13.7173C14.7756 12.9456 14.3919 11.9331 13.9082 11.2524C13.3757 10.503 13.0481 10.1901 12.3953 9.80705C12.0394 9.59824 11.6562 9.35896 11.5439 9.27534C11.2189 9.03354 10.2529 8.66593 9.33898 8.43637C8.87562 8.31996 8.45413 8.22471 8.40244 8.22471C8.33208 8.22471 8.30851 8.33765 8.30851 8.67525Z" fill="#FF2DE3"/>
<path d="M15.884 4.9079C14.8927 6.26048 14.2879 8.07618 14.1902 9.99368C14.1424 10.9308 14.1992 11.1199 14.8241 12.1028C15.0502 12.4583 15.3957 13.0477 15.592 13.4125C15.7883 13.7774 15.9601 14.0759 15.9738 14.0759C15.9875 14.0759 16.2909 13.7525 16.6482 13.3573C17.3876 12.5394 17.7093 12.0325 17.9571 11.295C18.1203 10.8093 18.1284 10.7188 18.1007 9.68962C18.0733 8.66913 18.0555 8.54809 17.8244 7.80968C17.4624 6.65217 17.3392 6.35001 16.9539 5.6725C16.5298 4.92701 16.2778 4.5507 16.2025 4.5507C16.1713 4.5507 16.0279 4.71147 15.884 4.9079Z" fill="#FF2DE3"/>
<path d="M22.9868 8.93781C21.6476 9.29235 20.7136 9.7384 19.7502 10.4833C18.8594 11.172 18.4593 11.651 17.82 12.7946C17.5609 13.2582 17.1631 14.2661 17.1631 14.4594C17.1631 14.5875 17.335 14.5558 17.9247 14.3189L18.3117 14.1635L18.1091 14.4154C17.9977 14.5539 17.8185 14.9028 17.711 15.1908C17.5465 15.6311 17.5335 15.7089 17.6288 15.6807C17.6911 15.6623 18.0486 15.5703 18.4232 15.4763C19.4261 15.2248 20.0466 14.9979 20.4133 14.7485C21.059 14.3095 22.1907 13.1918 22.5677 12.621C23.4559 11.2757 23.7122 10.6454 23.8642 9.43237L23.9473 8.76901L23.7735 8.77227C23.678 8.77404 23.3239 8.84854 22.9868 8.93781Z" fill="#FF2DB6"/>
<path d="M13.8597 17.1064C12.5133 17.4576 11.2196 18.0979 10.3604 18.8385C9.02376 19.9905 8.13911 21.7151 7.87504 23.6835C7.84126 23.9355 7.84167 23.9359 8.05779 23.8951C9.18818 23.6814 10.6138 23.0666 11.5958 22.3691C13.1312 21.2785 13.565 20.8451 14.2708 19.6967C14.6456 19.0867 15.1727 17.6596 15.0342 17.6294C14.9876 17.6192 14.6351 17.7167 14.251 17.8461L13.5525 18.0813L13.8132 17.7626C14.1516 17.3488 14.3135 17.084 14.2506 17.0471C14.2229 17.0309 14.047 17.0576 13.8597 17.1064Z" fill="#FF2DB5"/>
</g>
<defs>
<clipPath id="clip0_44_36">
<rect width="32" height="32" fill="white"/>
</clipPath>
</defs>
</svg>
