<svg width="24" height="25" viewBox="0 0 24 25" fill="none" xmlns="http://www.w3.org/2000/svg">
<path d="M21.1244 4.16774C21.1244 4.16774 23.1596 3.34531 22.99 5.34264C22.9334 6.16508 22.4247 9.04357 22.0289 12.1571L20.6722 21.38C20.6722 21.38 20.5591 22.7312 19.5415 22.9662C18.5239 23.2011 16.9976 22.1437 16.7149 21.9087C16.4887 21.7325 12.475 19.089 11.0617 17.7966C10.6659 17.4441 10.2137 16.7392 11.1182 15.9167L17.0541 10.0423C17.7325 9.33731 18.4109 7.69246 15.5842 9.68979L7.66972 15.2706C7.66972 15.2706 6.76521 15.858 5.06927 15.3293L1.39465 14.1544C1.39465 14.1544 0.0378716 13.2732 2.3557 12.392C8.00894 9.631 14.9624 6.81124 21.1244 4.16774Z" stroke="#142B2E" stroke-opacity="0.62" stroke-width="2"/>
</svg>
