<svg width="24" height="25" viewBox="0 0 24 25" fill="none" xmlns="http://www.w3.org/2000/svg">
<path d="M15.0323 3H8.96774C3.32258 3 2 4.32258 2 9.96774V16.0968C2 21.6774 3.32258 23 8.96774 23H15.0968C20.6774 23 22 21.6774 22 16.0323V9.96774C22 4.32258 20.6774 3 15.0323 3Z" stroke="#142B2E" stroke-opacity="0.62" stroke-width="2"/>
<path d="M16.6774 17.2582H18.129C18.5484 17.2582 18.7419 17.0323 18.5806 16.484C18.4516 16.0646 18 15.484 17.3548 14.742C17.0322 14.3549 16.4839 13.9356 16.3548 13.7098C16.129 13.4194 16.2258 13.2904 16.3548 13.0646C16.3548 13.0646 18.129 10.5807 18.3226 9.70976C18.4193 9.38718 18.3226 9.16138 17.871 9.16138H16.4193C16.0322 9.16138 15.871 9.35492 15.7742 9.58073C15.7742 9.58073 15.0322 11.3549 14 12.5485C13.6774 12.9033 13.5161 13.0001 13.3226 13.0001C13.2258 13.0001 13.0968 12.9033 13.0968 12.5807V9.70976C13.0968 9.29041 13 9.16138 12.6774 9.16138H10.4193C10.1935 9.16138 10.0645 9.38718 10.0645 9.51622C10.0645 9.93557 10.5806 9.96783 10.6129 10.9678V13.0969C10.6129 13.5485 10.5484 13.6452 10.3548 13.6452C9.8387 13.6452 8.67741 11.8388 7.93547 9.74202C7.80644 9.32267 7.64515 9.19364 7.29031 9.19364H5.8387C5.41934 9.19364 5.38708 9.38718 5.38708 9.61299C5.38708 10.0323 5.8387 11.9356 7.64515 14.484C8.87096 16.1936 10.5484 17.1614 12.0968 17.1614C13.0322 17.1614 13.129 16.9678 13.129 16.613V15.2904C13.129 14.8711 13.2258 14.8388 13.4839 14.8388C13.6774 14.8388 14.0645 14.9356 14.9355 15.8065C15.9355 16.8065 16.129 17.2582 16.6774 17.2582Z" stroke="#142B2E" stroke-opacity="0.62" stroke-width="1.4"/>
</svg>
