<svg width="24" height="25" viewBox="0 0 24 25" fill="none" xmlns="http://www.w3.org/2000/svg">
<g clip-path="url(#clip0_119_16)">
<path fill-rule="evenodd" clip-rule="evenodd" d="M10.2965 2.0573C6.74321 2.57194 3.76928 4.68903 2.16904 7.8431C0.641739 10.8535 0.609517 14.3301 2.08082 17.3621C2.25882 17.7289 2.4044 18.0506 2.4044 18.0771C2.4044 18.1036 2.08605 19.3051 1.69697 20.7472C1.30789 22.1892 1.00091 23.3805 1.01478 23.3944C1.02865 23.4082 2.28536 23.1246 3.80744 22.764L6.57491 22.1084L7.14128 22.3777C8.51778 23.0319 10.1889 23.41 11.704 23.41C16.305 23.41 20.4212 20.4313 21.8864 16.0415C22.2486 14.9562 22.4089 13.9246 22.41 12.6716C22.4126 9.68543 21.2688 7.01839 19.0881 4.92588C17.5217 3.42296 15.7147 2.51234 13.4886 2.10423C12.8684 1.9905 10.9521 1.96234 10.2965 2.0573Z" stroke="#142B2E" stroke-opacity="0.62" stroke-width="2"/>
<path d="M5.74067 8.27695C5.99198 7.77412 6.64272 7.07504 6.9447 6.98344C7.31044 6.744 8.27208 6.79338 9.19274 8.90647C9.44955 9.53352 9.65971 10.0879 9.65971 10.1385C9.65971 10.3199 9.36079 10.8152 8.98228 11.2609C8.24659 11.8315 8.98228 12.7772 10.3436 14.1788C11.1713 14.9524 12.7933 15.8995 13.2905 15.8995C13.5031 15.8995 13.6974 15.7063 14.4646 14.7324C14.7698 14.345 14.8221 14.3039 15.011 14.3039C15.227 14.3039 16.3542 14.7967 17.4839 15.3851C17.6947 15.4783 18.1067 15.7824 18.0679 16.254C18.0589 17.0214 17.9104 17.4063 17.4478 17.86C17.0558 18.2446 16.3085 18.6439 15.8077 18.7363C15.0291 18.8801 14.3969 18.785 12.9682 18.3092C10.8956 17.619 9.33517 16.5559 7.86246 14.8308C5.48362 12.0444 4.84434 10.0698 5.74067 8.27695Z" stroke="#142B2E" stroke-opacity="0.62" stroke-width="2"/>
</g>
<defs>
<clipPath id="clip0_119_16">
<rect width="24" height="24" fill="white" transform="translate(0 0.98584)"/>
</clipPath>
</defs>
</svg>
